<svg width="193" height="478" viewBox="0 0 193 478" fill="none" xmlns="http://www.w3.org/2000/svg">
<path d="M101.325 15.0751C101.325 17.2372 99.5834 18.979 97.4212 18.979C95.2591 18.979 93.5174 17.2372 93.5174 15.0751C93.5174 12.9129 95.1991 11.1712 97.4212 11.1712C99.6434 11.2312 101.325 12.973 101.325 15.0751ZM85.2292 22.9429V23.9039C85.2292 23.9039 83.3674 21.5015 79.4035 21.5015C72.857 21.5015 67.7519 26.4865 67.7519 33.3934C67.7519 40.2402 72.7969 45.2853 79.4035 45.2853C83.4274 45.2853 85.2292 42.8228 85.2292 42.8228V43.8438C85.2292 44.3243 85.5896 44.6847 86.07 44.6847H90.9348V22.1021H86.07C85.5896 22.1021 85.2292 22.5225 85.2292 22.9429ZM85.2292 37.4174C84.3283 38.7387 82.5265 39.8799 80.3644 39.8799C76.5206 39.8799 73.5777 37.4775 73.5777 33.3934C73.5777 29.3093 76.5206 26.9069 80.3644 26.9069C82.4665 26.9069 84.3884 28.1081 85.2292 29.3694V37.4174ZM94.5384 22.1021H100.304V44.6847H94.5384V22.1021ZM180.663 21.5015C176.7 21.5015 174.838 23.9039 174.838 23.9039V11.2312H169.072V44.6847H173.937C174.417 44.6847 174.778 44.2643 174.778 43.8438V42.8228C174.778 42.8228 176.64 45.2853 180.603 45.2853C187.15 45.2853 192.255 40.2402 192.255 33.3934C192.255 26.5465 187.15 21.5015 180.663 21.5015ZM179.703 39.8198C177.48 39.8198 175.739 38.6787 174.838 37.3574V29.3093C175.739 28.1081 177.661 26.8468 179.703 26.8468C183.546 26.8468 186.489 29.2492 186.489 33.3333C186.489 37.4174 183.546 39.8198 179.703 39.8198ZM166.069 31.2913V44.7447H160.303V31.952C160.303 28.2282 159.102 26.7267 155.859 26.7267C154.117 26.7267 152.315 27.6276 151.174 28.9489V44.6847H145.409V22.1021H149.973C150.454 22.1021 150.814 22.5225 150.814 22.9429V23.9039C152.496 22.1622 154.718 21.5015 156.94 21.5015C159.463 21.5015 161.565 22.2222 163.246 23.6637C165.288 25.3453 166.069 27.5075 166.069 31.2913ZM131.415 21.5015C127.451 21.5015 125.589 23.9039 125.589 23.9039V11.2312H119.823V44.6847H124.688C125.169 44.6847 125.529 44.2643 125.529 43.8438V42.8228C125.529 42.8228 127.391 45.2853 131.355 45.2853C137.901 45.2853 143.006 40.2402 143.006 33.3934C143.066 26.5465 137.961 21.5015 131.415 21.5015ZM130.454 39.8198C128.232 39.8198 126.49 38.6787 125.589 37.3574V29.3093C126.49 28.1081 128.412 26.8468 130.454 26.8468C134.298 26.8468 137.241 29.2492 137.241 33.3333C137.241 37.4174 134.298 39.8198 130.454 39.8198ZM114.838 21.5015C116.58 21.5015 117.481 21.8018 117.481 21.8018V27.1471C117.481 27.1471 112.676 25.5255 109.673 28.9489V44.7447H103.908V22.1021H108.772C109.253 22.1021 109.613 22.5225 109.613 22.9429V23.9039C110.694 22.6426 113.037 21.5015 114.838 21.5015ZM54.9593 42.6426C54.659 41.9219 54.3587 41.1411 54.0584 40.4805C53.5779 39.3994 53.0975 38.3784 52.677 37.4174L52.617 37.3574C48.4729 28.3483 44.0285 19.2192 39.3439 10.2102L39.1637 9.84985C38.6832 8.94895 38.2027 7.98799 37.7223 7.02703C37.1217 5.94595 36.5211 4.8048 35.5601 3.72372C33.6382 1.32132 30.8755 0 27.9326 0C24.9296 0 22.227 1.32132 20.245 3.6036C19.3441 4.68468 18.6835 5.82583 18.0829 6.90691C17.6024 7.86787 17.1219 8.82883 16.6414 9.72973L16.4613 10.0901C11.8367 19.0991 7.33224 28.2282 3.18815 37.2372L3.12809 37.3574C2.70768 38.3183 2.2272 39.3393 1.74673 40.4204C1.44643 41.0811 1.14613 41.8018 0.845836 42.5826C0.0650644 44.8048 -0.175173 46.9069 0.125124 49.0691C0.785776 53.5736 3.78874 57.3574 7.93284 59.039C9.49438 59.6997 11.116 60 12.7976 60C13.2781 60 13.8787 59.9399 14.3592 59.8799C16.3411 59.6396 18.3832 58.979 20.3651 57.8378C22.8276 56.4565 25.1699 54.4745 27.8125 51.5916C30.4551 54.4745 32.8575 56.4565 35.2598 57.8378C37.2418 58.979 39.2838 59.6396 41.2658 59.8799C41.7462 59.9399 42.3468 60 42.8273 60C44.509 60 46.1906 59.6997 47.6921 59.039C51.8963 57.3574 54.8392 53.5135 55.4998 49.0691C55.9803 46.967 55.7401 44.8649 54.9593 42.6426ZM27.8725 45.7658C24.6293 41.6817 22.5273 37.8378 21.8065 34.5946C21.5062 33.2132 21.4462 32.012 21.6264 30.9309C21.7465 29.97 22.1068 29.1291 22.5873 28.4084C23.7284 26.7868 25.6503 25.7658 27.8725 25.7658C30.0947 25.7658 32.0767 26.7267 33.1578 28.4084C33.6382 29.1291 33.9986 29.97 34.1187 30.9309C34.2989 32.012 34.2388 33.2733 33.9385 34.5946C33.2178 37.7778 31.1157 41.6216 27.8725 45.7658ZM51.8362 48.5886C51.4158 51.7117 49.3137 54.4144 46.3708 55.6156C44.9294 56.2162 43.3678 56.3964 41.8063 56.2162C40.3048 56.036 38.8033 55.5556 37.2418 54.6547C35.0797 53.4535 32.9175 51.5916 30.395 48.8288C34.3589 43.964 36.7613 39.5195 37.6622 35.5556C38.0826 33.6937 38.1427 32.012 37.9625 30.4505C37.7223 28.9489 37.1817 27.5676 36.3409 26.3664C34.4791 23.6637 31.356 22.1021 27.8725 22.1021C24.3891 22.1021 21.266 23.7237 19.4042 26.3664C18.5633 27.5676 18.0228 28.9489 17.7826 30.4505C17.5423 32.012 17.6024 33.7538 18.0829 35.5556C18.9838 39.5195 21.4462 44.024 25.35 48.8889C22.8876 51.6517 20.6654 53.5135 18.5033 54.7147C16.9417 55.6156 15.4403 56.0961 13.9388 56.2763C12.3172 56.4565 10.7556 56.2162 9.37426 55.6757C6.43135 54.4745 4.32928 51.7718 3.90886 48.6486C3.72868 47.1471 3.8488 45.6456 4.4494 43.964C4.62957 43.3634 4.92987 42.7628 5.23017 42.042C5.65058 41.0811 6.13106 40.0601 6.61153 39.039L6.67159 38.9189C10.8157 29.97 15.2601 20.8408 19.8846 11.952L20.0648 11.5916C20.5453 10.6907 21.0258 9.72973 21.5062 8.82883C21.9867 7.86787 22.5273 6.96697 23.1879 6.18619C24.4492 4.74474 26.1308 3.96396 27.9927 3.96396C29.8545 3.96396 31.5362 4.74474 32.7974 6.18619C33.4581 6.96697 33.9986 7.86787 34.4791 8.82883C34.9595 9.72973 35.44 10.6907 35.9205 11.5916L36.1007 11.952C40.6652 20.9009 45.1096 30.03 49.2537 38.979V39.039C49.7341 40 50.1545 41.0811 50.635 42.042C50.9353 42.7628 51.2356 43.3634 51.4158 43.964C51.8963 45.5255 52.0764 47.027 51.8362 48.5886Z" fill="#424147"/>
<path d="M8.73217 179.322L4.3642 183.686L0 179.322L4.3642 174.958L8.73217 179.322ZM19.3218 168.725L26.8006 176.207L31.1647 171.843L19.3218 160L7.47878 171.843L11.843 176.207L19.3218 168.725ZM34.2831 174.958L29.9189 179.322L34.2831 183.686L38.6435 179.322L34.2831 174.958ZM19.3218 189.919L11.843 182.44L7.47878 186.801L19.3218 198.644L31.1647 186.801L26.8006 182.44L19.3218 189.919ZM19.3218 183.686L23.686 179.322L19.3218 174.958L14.9576 179.322L19.3218 183.686ZM65.3799 184.105V184.045C65.3799 181.198 63.8698 179.775 61.4121 178.839C62.9222 177.989 64.1982 176.657 64.1982 174.267V174.206C64.1982 170.877 61.5329 168.725 57.2027 168.725H47.3719V189.919H57.4519C62.2351 189.919 65.3875 187.983 65.3875 184.105H65.3799ZM59.566 175.045C59.566 176.619 58.2635 177.287 56.206 177.287H51.9136V172.813H56.5156C58.4825 172.813 59.5736 173.599 59.5736 174.992L59.566 175.045ZM60.7477 183.524C60.7477 185.098 59.5056 185.823 57.4443 185.823H51.9136V181.168H57.3008C59.6944 181.168 60.7552 182.048 60.7552 183.471L60.7477 183.524ZM75.1767 189.919V168.725H70.4991V189.919H75.1767ZM100.241 189.919V168.725H95.6235V181.776L85.6945 168.725H81.3945V189.919H85.9966V176.445L96.2577 189.919H100.241ZM126.067 189.919L116.969 168.574H112.669L103.589 189.919H108.342L110.287 185.166H119.249L121.186 189.919H126.067ZM117.592 181.047H111.944L114.76 174.176L117.592 181.047ZM148.292 189.919V168.725H143.675V181.776L133.742 168.725H129.446V189.919H134.044V176.445L144.309 189.919H148.292ZM172.359 186.499L169.396 183.501C167.731 185.011 166.247 185.982 163.824 185.982C160.192 185.982 157.677 182.961 157.677 179.322V179.262C157.677 175.63 160.252 172.662 163.824 172.662C165.941 172.662 167.599 173.568 169.245 175.052L172.201 171.632C170.234 169.695 167.844 168.362 163.846 168.362C157.338 168.362 152.796 173.297 152.796 179.311V179.371C152.796 185.457 157.428 190.27 163.665 190.27C167.746 190.282 170.166 188.828 172.344 186.499H172.359ZM192.255 189.919V185.766H180.733V181.308H190.726V177.155H180.733V172.874H192.089V168.721H176.101V189.916L192.255 189.919Z" fill="#424147"/>
<path fill-rule="evenodd" clip-rule="evenodd" d="M14.7105 334.696C16.1753 334.696 17.5455 334.428 18.837 333.909C18.837 333.956 21.4673 338.035 21.5145 338.051C19.1865 339.298 16.5795 339.932 13.9388 339.894C5.859 339.91 0 334.57 0 326.081C0 317.529 6.1425 312.221 13.9388 312.221C16.695 312.221 18.8843 312.819 21.0735 313.985L18.5535 318.237C17.2305 317.718 15.876 317.481 14.4585 317.481C9.68625 317.481 5.985 320.521 5.985 326.081C5.985 331.341 9.56025 334.696 14.7105 334.696ZM35.0753 312.221C43.0133 312.221 48.762 317.844 48.762 326.081C48.762 334.271 43.0133 339.894 35.0595 339.894C27.1845 339.894 21.4358 334.271 21.4358 326.081C21.4358 317.844 27.1845 312.221 35.0753 312.221ZM35.0753 317.292C30.6495 317.292 27.4207 320.71 27.4207 326.081C27.4207 331.404 30.6495 334.822 35.0753 334.822C39.6113 334.822 42.7928 331.404 42.7928 326.081C42.7928 320.71 39.6113 317.292 35.0753 317.292ZM52.5262 339.295V312.819H58.4483V339.28H52.5262V339.295ZM51.7388 304.676C51.8002 303.734 52.2177 302.851 52.9065 302.206C53.5953 301.56 54.5039 301.201 55.4479 301.201C56.3918 301.201 57.3004 301.56 57.9893 302.206C58.6781 302.851 59.0956 303.734 59.157 304.676C59.1572 305.665 58.7698 306.615 58.0779 307.322C57.3859 308.028 56.4446 308.436 55.4557 308.456C54.4669 308.436 53.5256 308.028 52.8336 307.322C52.1417 306.615 51.7543 305.665 51.7545 304.676H51.7388ZM63.6143 314.489C67.4934 313.031 71.5979 312.263 75.7418 312.221C82.5143 312.221 86.7983 314.788 86.7983 322.254V339.295H80.955V322.805C80.955 318.978 78.5768 317.607 75.285 317.607C73.1903 317.607 71.0955 317.891 69.5363 318.379V339.28H63.63V314.489H63.6143ZM91.7595 298.644H97.6815V313.528C98.9415 312.866 101.383 312.221 103.714 312.221C111.368 312.221 117.101 317.103 117.101 325.608C117.101 334.161 111.431 339.894 101.635 339.894C97.8075 339.894 94.4528 339.106 91.7595 338.161V298.644ZM97.6815 334.271C98.8155 334.633 100.312 334.822 101.808 334.822C107.242 334.822 111.132 331.83 111.132 325.734C111.132 320.584 107.478 317.544 103.005 317.544C100.674 317.544 98.8785 318.143 97.6815 318.804V334.271ZM134.222 321.545C134.222 318.678 132.048 317.355 129.119 317.355C126.079 317.355 123.685 318.253 121.48 319.513V314.363C124.118 312.929 127.077 312.192 130.079 312.221C135.875 312.221 140.002 314.615 140.002 321.246V338.76C137.482 339.421 133.907 339.831 130.914 339.831C124.047 339.831 119.023 337.752 119.023 331.767C119.023 326.38 123.622 323.75 131.276 323.75H134.206V321.545H134.222ZM134.222 327.687H131.702C127.575 327.687 124.882 328.9 124.882 331.593C124.882 334.334 127.402 335.405 130.977 335.405C131.875 335.405 133.135 335.295 134.206 335.121V327.703L134.222 327.687ZM144.302 332.129C146.61 333.958 149.439 335.006 152.381 335.121C155.012 335.121 156.744 334.224 156.744 332.129C156.744 329.971 155.185 329.199 151.783 328.302C146.27 327.042 143.955 324.837 143.955 320.222C143.955 314.851 148.019 312.221 153.405 312.221C156.398 312.221 158.776 312.866 160.997 314.252V319.686C158.886 318.002 156.278 317.061 153.578 317.009C151.011 317.009 149.641 318.269 149.641 320.001C149.641 321.734 150.759 322.616 153.815 323.466C159.863 324.774 162.477 327.042 162.477 331.814C162.477 337.39 158.24 339.894 152.507 339.894C149.632 339.951 146.797 339.21 144.317 337.752V332.129H144.302ZM170.588 327.404V327.514C170.951 332.239 174.998 334.822 179.141 334.822C182.779 334.822 185.409 333.972 188.039 332.239V337.437C185.645 339.122 182.117 339.894 178.715 339.894C170.462 339.894 164.855 334.633 164.855 326.27C164.855 317.844 170.352 312.221 177.644 312.221C185.362 312.221 189 317.182 189 324.411V327.404H170.573H170.588ZM183.44 323.577C183.314 319.45 181.283 317.182 177.455 317.182C174.053 317.182 171.549 319.576 170.762 323.577H183.44Z" fill="#424147"/>
<path d="M22.3111 447.018L11.1555 454.138L22.3111 461.259L11.1555 468.38L0 461.2L11.1555 454.079L0 447.018L11.1555 439.897L22.3111 447.018ZM11.0962 470.634L22.2517 463.514L33.4073 470.634L22.2517 477.755L11.0962 470.634ZM22.3111 461.2L33.4666 454.079L22.3111 447.018L33.4073 439.897L44.5628 447.018L33.4073 454.138L44.5628 461.259L33.4073 468.38L22.3111 461.2Z" fill="#424147"/>
<path d="M53.2832 447.017H62.3026C68.0584 447.017 72.8054 450.34 72.8054 457.936V459.538C72.8054 467.193 68.355 470.634 62.4806 470.634H53.2832V447.017ZM58.3269 451.29V466.303H62.1839C65.4475 466.303 67.643 464.166 67.643 459.419V458.173C67.643 453.426 65.3288 451.29 62.0059 451.29H58.3269ZM75.4756 451.527H79.5106L80.1633 455.978C80.9347 452.951 82.8928 451.349 86.4531 451.349H87.6992V456.452H85.6224C81.5281 456.452 80.5193 457.876 80.5193 461.912V470.694H75.5349V451.527H75.4756ZM88.708 461.496V460.962C88.708 454.554 92.8023 451.053 98.3801 451.053C104.076 451.053 108.052 454.554 108.052 460.962V461.496C108.052 467.786 104.195 471.168 98.3801 471.168C92.2089 471.109 88.708 467.786 88.708 461.496ZM102.949 461.437V460.962C102.949 457.402 101.169 455.266 98.3207 455.266C95.5318 455.266 93.6923 457.224 93.6923 460.962V461.437C93.6923 464.878 95.4725 466.837 98.3207 466.837C101.169 466.777 102.949 464.878 102.949 461.437ZM110.663 451.527H114.817L115.291 455.147C116.3 452.714 118.436 451.053 121.581 451.053C126.447 451.053 129.651 454.554 129.651 461.021V461.555C129.651 467.845 126.091 471.168 121.581 471.168C118.555 471.168 116.478 469.804 115.469 467.608V477.28H110.604L110.663 451.527ZM124.607 461.437V461.021C124.607 457.224 122.649 455.325 120.038 455.325C117.25 455.325 115.41 457.461 115.41 461.021V461.377C115.41 464.76 117.19 466.896 119.979 466.896C122.827 466.837 124.607 464.997 124.607 461.437ZM137.009 467.133L136.594 470.634H132.321V445.119H137.187V454.91C138.255 452.417 140.391 451.053 143.418 451.053C147.987 451.112 151.369 454.257 151.369 460.606V461.199C151.369 467.549 148.165 471.168 143.299 471.168C140.095 471.109 138.018 469.626 137.009 467.133ZM146.266 461.199V460.725C146.266 457.224 144.367 455.266 141.697 455.266C138.967 455.266 137.068 457.461 137.068 460.784V461.199C137.068 464.76 138.908 466.837 141.637 466.837C144.545 466.837 146.266 464.997 146.266 461.199ZM153.505 461.496V460.962C153.505 454.554 157.599 451.053 163.177 451.053C168.874 451.053 172.849 454.554 172.849 460.962V461.496C172.849 467.786 168.933 471.168 163.177 471.168C157.006 471.109 153.505 467.786 153.505 461.496ZM167.805 461.437V460.962C167.805 457.402 166.025 455.266 163.177 455.266C160.388 455.266 158.549 457.224 158.549 460.962V461.437C158.549 464.878 160.329 466.837 163.177 466.837C166.025 466.777 167.805 464.878 167.805 461.437ZM179.376 460.725L172.671 451.527H178.427L182.284 457.283L186.2 451.527H191.897L185.073 460.665L192.253 470.634H186.616L182.225 464.285L177.952 470.634H172.078L179.376 460.725Z" fill="#424147"/>
</svg>
